<svg width="512" height="512" viewBox="0 0 512 512" fill="none" xmlns="http://www.w3.org/2000/svg">
  <rect x="26" y="26" width="460" height="460" rx="108" fill="#171717" stroke="#F5F5F4" stroke-width="12"/>

  <path d="M360 109C360 99.6112 367.611 92 377 92C386.389 92 394 99.6112 394 109V260H360V109Z" fill="#F5F5F4"/>
  <path d="M342 253C342 244.716 348.716 238 357 238H397C405.284 238 412 244.716 412 253V275H342V253Z" fill="#F5F5F4"/>
  <path d="M327 271C327 262.716 333.716 256 342 256H412C420.284 256 427 262.716 427 271V293H327V271Z" fill="#F5F5F4"/>
  <path d="M331 306C350 318 363 331 371 346" stroke="#F5F5F4" stroke-width="14" stroke-linecap="round"/>
  <path d="M348 304C360 320 366 337 368 355" stroke="#F5F5F4" stroke-width="14" stroke-linecap="round"/>
  <path d="M364 304C370 322 373 341 372 363" stroke="#F5F5F4" stroke-width="14" stroke-linecap="round"/>
  <path d="M380 304V364" stroke="#F5F5F4" stroke-width="14" stroke-linecap="round"/>
  <path d="M396 304C394 322 397 341 404 363" stroke="#F5F5F4" stroke-width="14" stroke-linecap="round"/>
  <path d="M412 304C408 321 411 338 420 355" stroke="#F5F5F4" stroke-width="14" stroke-linecap="round"/>

  <path d="M150 318L170 306" stroke="#F5F5F4" stroke-width="15" stroke-linecap="round"/>
  <path d="M172 266L203 248L231 266L203 295L172 277V266Z" stroke="#F5F5F4" stroke-width="15" stroke-linejoin="round"/>
  <path d="M222 227L250 210L278 220" stroke="#F5F5F4" stroke-width="15" stroke-linecap="round" stroke-linejoin="round"/>
  <path d="M253 185L281 171L313 183" stroke="#F5F5F4" stroke-width="15" stroke-linecap="round" stroke-linejoin="round"/>
  <path d="M280 168L311 178L328 199L322 229L292 246" stroke="#F5F5F4" stroke-width="15" stroke-linecap="round" stroke-linejoin="round"/>
  <path d="M129 352L162 333L197 352L190 387L153 398L124 379L129 352Z" fill="#F5F5F4"/>
  <path d="M199 317L225 299L253 316L248 346L219 356L195 341L199 317Z" fill="#F5F5F4"/>
  <path d="M260 314L286 296L312 310L309 338L283 352L258 339L260 314Z" fill="#F5F5F4"/>
  <path d="M155 415L171 386L204 393L208 425L181 442L155 415Z" fill="#F5F5F4"/>
  <path d="M224 400L247 379L276 389L275 418L251 437L224 400Z" fill="#F5F5F4"/>
  <path d="M290 394L319 377L345 393L341 422L313 438L289 421L290 394Z" fill="#F5F5F4"/>
</svg>
